<svg height="800pt" preserveAspectRatio="xMidYMid meet" viewBox="0 0 800 800" width="800pt" xmlns="http://www.w3.org/2000/svg"><g transform="matrix(.1 0 0 -.1 0 800)"><path d="m0 4000v-4000h4000 4000v4000 4000h-4000-4000zm4405 2390 400-400h317 318v33c0 17 4 49 9 70l9 37h-319c-206 0-319 4-319 10s115 10 323 11h322l32 67c34 69 87 141 97 131 3-3-9-26-28-50s-46-66-60-94l-25-50 330-3 329-2v-330c0-182 2-330 5-330 16 0 116 57 153 87 23 19 42 30 42 24 0-17-84-79-143-106l-57-26v-325c0-209-4-324-10-324s-10 114-10 321v321l-42-7c-24-3-55-8-70-11l-28-6v-315-316l222-224c122-122 227-223 233-223 5 0 91-81 190-180l180-180-180-180c-98-98-181-177-184-174-3 2-108-98-233-223l-228-228v-315-315l83-16c45-9 90-20 99-24 17-7 18 14 21 326l2 334 3-337 2-338 40-20c45-23 110-77 110-92 0-5-19 6-42 24-45 36-94 68-103 68-3 0-5-155-5-345v-345h-340c-187 0-340-3-340-6 0-12 43-79 68-106 14-15 23-31 19-34-8-9-52 42-85 98l-27 48h-332c-215 0-333 4-333 10s116 10 329 10h329l-15 42c-8 23-17 67-21 97l-7 56-310 3-310 2-407-407-408-408-403 403-402 402h-317-316l-11-62c-7-35-14-75-18-90l-5-28 328-3 329-2-332-3-331-2-30-53c-34-60-79-117-93-117-5 0 7 21 27 47 19 25 44 63 55 85l19 38h-340-340v340 341l-32-17c-18-9-57-34-85-55-29-22-53-35-53-30 0 12 91 82 138 105l32 17v329c0 213 4 330 10 330s10-115 10-326v-326l23 6c12 3 52 11 90 17l67 12v311l1 311-413 408-413 407 413 408 413 407-1 311v312l-32 5c-18 3-52 9-75 12l-43 7v-321c0-207-4-321-10-321s-10 115-10 324v325l-52 26c-64 32-148 93-148 107 0 6 8 5 19-3 82-60 116-82 146-95l35-14v330 330h330c182 0 330 2 330 5 0 16-57 116-87 153-19 23-30 42-24 42 17 0 79-84 106-143l26-57h325c209 0 324-4 324-10s-114-10-321-10h-321l6-32c4-18 9-50 13-70l6-38h316 316l399 400c220 220 402 400 405 400 4 0 186-180 406-400z"/><path d="m3990 6700c0-5 5-10 10-10 6 0 10 5 10 10 0 6-4 10-10 10-5 0-10-4-10-10z"/><path d="m4030 6671c0-5 5-13 10-16 6-3 10-2 10 4 0 5-4 13-10 16-5 3-10 2-10-4z"/><path d="m3945 6660c-3-5-2-10 4-10 5 0 13 5 16 10 3 6 2 10-4 10-5 0-13-4-16-10z"/><path d="m3905 6620c-3-5-2-10 4-10 5 0 13 5 16 10 3 6 2 10-4 10-5 0-13-4-16-10z"/><path d="m4075 6620c3-5 11-10 16-10 6 0 7 5 4 10-3 6-11 10-16 10-6 0-7-4-4-10z"/><path d="m3867 6583c-4-3-7-11-7-17s5-5 12 2c6 6 9 14 7 17-3 3-9 2-12-2z"/><path d="m4120 6575c7-9 15-13 17-11 7 7-7 26-19 26-6 0-6-6 2-15z"/><path d="m2883 5471c-607-610-1103-1113-1103-1118s78-86 173-181l173-171-178-178-178-178 1115-1115 1115-1115 1110 1110c610 610 1110 1114 1110 1120 0 5-78 87-172 182l-173 173 173 173c94 95 172 177 172 182 0 13-2212 2225-2225 2225-5 0-506-499-1112-1109zm1127 804c0-123-4-195-10-195s-10 72-10 195 4 195 10 195 10-72 10-195zm-130-95c0-82-3-100-15-100s-15 18-15 100 3 100 15 100 15-18 15-100zm270 0c0-60-4-100-10-100s-10 40-10 100 4 100 10 100 10-40 10-100zm-270-375c0-8-9-15-20-15s-20 7-20 15 9 15 20 15 20-7 20-15zm-72-47c17-17 15-58-2-58-7 0-16 9-19 20-6 24-25 26-34 4-3-10 8-29 31-53 45-46 49-92 11-117-23-15-27-15-50 0-16 10-25 26-25 41 0 32 27 34 32 3 4-31 32-29 36 1 3 18-6 33-32 57-39 36-47 72-20 98 18 19 55 21 72 4zm72-98c0-103-1-110-20-110s-20 7-20 110 1 110 20 110 20-7 20-110zm117 99c9-8 13-40 13-110 0-81-3-99-15-99s-15 17-15 95c0 88-1 95-20 95s-20-7-20-95c0-78-3-95-15-95s-15 19-15 108v109l37 1c20 1 42-3 50-9zm139-14c18-28 13-55-11-55-9 0-15 9-15 26 0 19-5 25-17 22-15-3-18-16-21-73-1-39 2-76 7-84 11-18 31-5 31 20 0 13 7 19 21 19 17 0 20-4 15-22-3-13-6-26-6-31 0-4-12-12-26-18-20-7-32-6-50 6-22 14-24 22-24 100 0 63 4 87 16 99 23 24 61 20 80-9zm122 13c7-7 12-34 12-60v-48h-36c-35 0-35-1-32-37 3-44 29-53 38-14 9 37 30 38 30 2 0-22-7-35-25-47-23-15-27-15-50 0-24 15-25 22-25 104 0 95 7 112 50 112 14 0 31-5 38-12zm-943-458h49l-58 59c-32 32-54 61-49 64s38-23 73-58c60-61 67-65 109-65h45l-59 60c-32 33-57 62-54 64 3 3 34-24 69-59l64-65h218 218v35c0 19 5 35 10 35 6 0 10-16 10-35 0-28 4-35 20-35s20 7 20 35c0 19 5 35 10 35 6 0 10-16 10-35 0-24 5-35 15-35s15 11 15 35 5 35 15 35 15-11 15-35v-35h207 207l68 67c37 37 71 64 75 60s-20-34-52-67l-59-60h44c42 0 49 5 109 65 35 36 66 63 69 60s-21-32-53-65l-59-60h49c48 0 52 2 117 67 37 37 71 64 75 60s-22-37-57-72l-64-65 64-65c35-35 62-67 59-69-3-3-34 24-69 59-62 62-66 65-114 65h-49l52-54c76-81 62-91-17-13-63 62-70 67-112 67h-44l59-60c32-33 57-62 54-64-3-3-34 24-69 59l-64 65h-213-213v-35c0-24-5-35-15-35s-15 11-15 35-5 35-15 35-15-11-15-35c0-19-4-35-10-35-5 0-10 16-10 35 0 28-4 35-20 35s-20-7-20-35c0-19-4-35-10-35-5 0-10 16-10 35v35h-218-218l-64-65c-35-35-68-61-73-58s17 32 49 64l58 59h-40c-35 0-46-7-104-65-35-35-68-61-73-58s17 32 49 64l58 59h-49c-48 0-52-2-117-67-38-37-68-61-68-53s27 42 60 75l60 61-60 59c-33 33-60 64-60 69 0 6 30-20 68-57 65-65 69-67 117-67zm1089-841c104-29 116-135 23-201l-30-21 5 34c8 50-7 78-49 96-69 28-202-10-233-67-33-62 0-96 174-179 156-74 196-114 196-195 0-70-12-102-58-149-37-38-107-67-162-67-88 0-201 70-219 137-18 64 32 133 97 133 17 0 19-5 15-44-13-110 93-205 163-148 31 25 45 56 46 107 1 69-19 90-146 150-86 40-121 63-149 95-95 112-38 259 122 316 44 16 153 18 205 3zm-1279-49c0-25-4-108-8-185-5-107-4-135 4-120 23 40 73 84 101 90 77 17 129-46 136-165 8-143-49-240-141-240-48 1-66 11-97 60l-22 35 7-38c5-34 3-38-20-47-18-7-33-7-46 0-18 10-19 24-19 314 0 276 2 304 18 318 22 20 42 27 67 25 17-2 20-9 20-47zm1929 32c3-5-4-91-14-193-24-226-26-379-5-419 13-25 13-29-1-34-9-3-29-6-44-6-61 0-71 73-54 384 7 133 14 245 14 249 0 19 93 36 104 19zm-2497-256c23-20 28-32 28-71 0-37-5-51-24-66-29-24-52-24-81-1-30 24-30 70 0 94 16 13 18 18 7 18-9 0-28-13-44-29-73-73-71-259 4-277 34-9 84 18 107 57s40 38 32-2c-20-100-135-152-216-96-53 35-73 78-72 156 0 108 43 183 127 222 55 26 98 24 132-5zm1095-6c28-28 30-35 26-85-7-87-74-159-149-160-47 0-52-23-14-60 37-38 71-33 122 20 48 51 65 43 40-18-36-85-150-117-218-60-77 65-81 193-9 306 53 85 148 111 202 57zm1668 15c34-18 54-71 45-118-16-78-106-155-166-143-34 6-34 6-15-38 10-25 23-36 44-41 38-8 67 6 109 54l32 36 1-29c0-36-34-88-71-110s-107-20-146 4c-47 28-67 73-67 150 0 162 127 290 234 235zm344-6c21-16 26-29 26-64 0-50-22-70-65-59-21 5-24 11-19 28 7 23 7 23 5 49-2 25-44 22-75-5-61-55-31-119 74-157 91-33 111-90 53-152-46-50-160-63-218-25-33 22-33 68 0 101 29 30 45 32 45 6 0-11 10-27 22-35 44-31 132-11 126 28-2 17-18 24-85 42-104 26-133 50-133 111 0 37 6 50 38 84 61 65 156 88 206 48zm-2726-228c3-258-5-306-64-371-41-45-85-58-138-40-71 23-120 121-80 160 11 10 31 22 46 25 26 7 26 6 21-34-8-60 16-93 65-89 54 5 74 45 80 165l5 96-41-41c-65-65-122-68-166-9-19 26-21 42-21 179 0 170 4 178 78 178 33 0 38-3 32-17-20-50-26-85-27-158-1-144 21-179 77-119 38 40 48 87 43 186-5 82-4 90 16 104 11 8 32 13 46 12l25-3zm1051 203c31-40 27-86-10-123s-53-40-45-8c7 30-15 62-37 54-9-3-26-25-39-49-18-34-23-62-25-137-2-99-8-111-50-111-40 0-46 31-39 199 4 101 11 160 19 168 7 7 27 15 45 19 31 6 32 6 32-30v-37l38 41c47 48 81 52 111 14zm858-143c-6-146-4-172 9-185 22-23 9-36-37-36-35 0-42 4-53 30l-12 31-20-22c-26-29-76-49-105-42-90 22-117 166-52 272 54 87 156 140 182 94 9-17 11-17 23-2 14 17 33 27 57 28 12 1 13-26 8-168zm-1532-1281h49l-58 59c-32 32-54 61-49 64s38-23 73-58c58-58 69-65 104-65h40l-52 53c-29 29-52 59-52 67s30-16 68-53l68-67h211 212l3 32c4 46 28 49 28 4 0-47 27-50 32-4 4 46 28 49 28 4 0-25 4-36 15-36s15 11 15 36c0 45 24 42 28-4l3-32h212 213l59 60c33 33 64 60 69 60 6 0-16-27-49-60l-59-60h44c42 0 49 5 112 67 38 37 68 62 68 56s-26-36-57-67l-58-56h55c55 0 57 1 115 60 33 33 64 60 69 60 6 0-19-29-54-65l-64-65 64-65c35-35 61-68 57-72s-38 23-75 60c-62 61-71 67-110 67-23 0-42-3-42-7s23-31 52-60c28-29 49-56 45-60s-38 23-75 60c-60 60-72 67-107 67h-39l59-60c32-33 56-63 52-67s-38 23-75 60l-68 67h-206-207l-3-37c-4-52-28-56-28-4 0 30-4 41-15 41s-15-11-15-41c0-52-24-48-28 4-5 54-32 50-32-4 0-52-24-48-28 4l-3 37h-211-210l-69-67c-38-36-69-62-69-57s23 32 50 59c28 27 50 53 50 57s-17 8-37 8c-33 0-46-8-105-67-38-37-68-63-68-57 0 5 23 32 50 59 28 27 50 53 50 57s-21 8-46 8c-43 0-50-4-115-67-85-81-92-72-9 12l60 61-60 59c-33 33-60 66-60 74 0 9 30-15 68-52 65-65 69-67 117-67zm485-425c0-113-2-135-15-135-12 0-15 19-15 111 0 95-2 110-15 105-20-7-19 13 2 36 37 41 43 25 43-117zm144 113c12-16 16-47 16-113 0-108-13-135-65-135-34 0-65 27-65 57 0 22 26 14 38-12 24-52 62-24 62 48 0 24-4 27-32 27-17 0-40 7-50 17-23 21-24 89-1 115s78 24 97-4zm150 6c21-21 21-90 0-102-14-8-14-10 0-21 21-18 21-94 0-115-24-24-80-20-98 6-20 28-21 78-2 103 12 17 12 22 0 39-32 47-4 106 51 106 18 0 41-7 49-16zm148-1c21-19 24-53 4-53-8 0-17 12-20 26-5 19-12 25-29 22-18-2-23-10-25-45-3-39-1-43 20-43 56 0 88-55 68-116-18-53-93-62-118-14-17 34-12 200 7 223 17 22 69 22 93 0zm-362-614c0-76-3-100-12-97s-14 35-16 101c-2 82 0 97 13 97 12 0 15-17 15-101zm130-88c0-116-4-192-10-196-7-4-10 62-10 189 0 124 4 196 10 196s10-70 10-189zm140 89c0-60-4-100-10-100s-10 40-10 100 4 100 10 100 10-40 10-100z"/><path d="m4200 5711c0-25 4-31 21-31 16 0 20 5 17 27-2 17-10 29-20 31-14 3-18-3-18-27z"/><path d="m3181 4093c-30-36-71-138-71-175 0-16 2-16 22 4l22 22 7-33c24-114 99-48 107 94 7 124-28 159-87 88z"/><path d="m3547 4120c-33-39-66-114-54-126 3-3 25 4 49 17 47 27 75 80 64 124-9 34-19 32-59-15z"/><path d="m5262 4153c-19-7-69-84-80-126-12-42-13-42 32-23 46 19 76 61 76 107 0 40-6 49-28 42z"/><path d="m4745 4128c-46-25-86-74-100-122-20-65-19-89 4-117 18-22 20-22 44-7 37 25 65 93 72 181 4 42 6 77 4 77s-13-6-24-12z"/><path d="m3866 2414c-19-49-2-94 35-94 27 0 29 3 29 36 0 19-5 44-10 55-13 23-46 25-54 3z"/><path d="m4020 2409c-17-31 2-71 33-67 19 3 22 9 22 43 0 33-4 41-22 43-14 2-26-4-33-19z"/><path d="m4019 2283c-19-52 12-101 46-73 8 7 15 27 15 44 0 56-43 77-61 29z"/><path d="m4174 2306c-3-7-4-33-2-57 3-39 6-44 28-44s25 5 28 43c3 45-10 72-35 72-7 0-16-6-19-14z"/><path d="m3820 6535c-8-9-8-15-2-15 12 0 26 19 19 26-2 2-10-2-17-11z"/><path d="m4160 6541c0-5 5-13 10-16 6-3 10-2 10 4 0 5-4 13-10 16-5 3-10 2-10-4z"/><path d="m3775 6490c-3-5-2-10 4-10 5 0 13 5 16 10 3 6 2 10-4 10-5 0-13-4-16-10z"/><path d="m4205 6490c3-5 11-10 16-10 6 0 7 5 4 10-3 6-11 10-16 10-6 0-7-4-4-10z"/><path d="m3737 6453c-4-3-7-11-7-17s5-5 12 2c6 6 9 14 7 17-3 3-9 2-12-2z"/><path d="m4245 6450c3-5 11-10 16-10 6 0 7 5 4 10-3 6-11 10-16 10-6 0-7-4-4-10z"/><path d="m3697 6413c-4-3-7-11-7-17s5-5 12 2c6 6 9 14 7 17-3 3-9 2-12-2z"/><path d="m4290 6411c0-5 5-13 10-16 6-3 10-2 10 4 0 5-4 13-10 16-5 3-10 2-10-4z"/><path d="m4330 6371c0-5 5-13 10-16 6-3 10-2 10 4 0 5-4 13-10 16-5 3-10 2-10-4z"/><path d="m3645 6360c-3-5-2-10 4-10 5 0 13 5 16 10 3 6 2 10-4 10-5 0-13-4-16-10z"/><path d="m3605 6320c-3-5-1-10 4-10 6 0 11 5 11 10 0 6-2 10-4 10-3 0-8-4-11-10z"/><path d="m4375 6320c3-5 11-10 16-10 6 0 7 5 4 10-3 6-11 10-16 10-6 0-7-4-4-10z"/><path d="m3567 6283c-4-3-7-11-7-17s5-5 12 2c6 6 9 14 7 17-3 3-9 2-12-2z"/><path d="m4420 6275c7-9 15-13 17-11 7 7-7 26-19 26-6 0-6-6 2-15z"/><path d="m4460 6241c0-5 5-13 10-16 6-3 10-2 10 4 0 5-4 13-10 16-5 3-10 2-10-4z"/><path d="m3520 6229c0-5 5-7 10-4 6 3 10 8 10 11 0 2-4 4-10 4-5 0-10-5-10-11z"/><path d="m3475 6190c-3-5-2-10 4-10 5 0 13 5 16 10 3 6 2 10-4 10-5 0-13-4-16-10z"/><path d="m4505 6190c3-5 11-10 16-10 6 0 7 5 4 10-3 6-11 10-16 10-6 0-7-4-4-10z"/><path d="m3437 6153c-4-3-7-11-7-17s5-5 12 2c6 6 9 14 7 17-3 3-9 2-12-2z"/><path d="m4545 6150c3-5 11-10 16-10 6 0 7 5 4 10-3 6-11 10-16 10-6 0-7-4-4-10z"/><path d="m1870 5806v-324l23-5c12-3 46-9 75-13l52-7v267 266h261 262l-7 54c-11 94 23 86-342 86h-324z"/><path d="m5469 6113c0-10-4-42-8-70l-7-53 260-2 261-3 3-262c3-299-7-272 95-252l57 12v323 324h-330c-307 0-330-1-331-17z"/><path d="m3397 6113c-4-3-7-11-7-17s5-5 12 2c6 6 9 14 7 17-3 3-9 2-12-2z"/><path d="m4590 6111c0-5 5-13 10-16 6-3 10-2 10 4 0 5-4 13-10 16-5 3-10 2-10-4z"/><path d="m4630 6071c0-5 5-13 10-16 6-3 10-2 10 4 0 5-4 13-10 16-5 3-10 2-10-4z"/><path d="m3345 6060c-3-5-2-10 4-10 5 0 13 5 16 10 3 6 2 10-4 10-5 0-13-4-16-10z"/><path d="m3305 6020c-3-5-1-10 4-10 6 0 11 5 11 10 0 6-2 10-4 10-3 0-8-4-11-10z"/><path d="m4675 6020c3-5 8-10 11-10 2 0 4 5 4 10 0 6-5 10-11 10-5 0-7-4-4-10z"/><path d="m3267 5983c-4-3-7-11-7-17s5-5 12 2c6 6 9 14 7 17-3 3-9 2-12-2z"/><path d="m4720 5975c7-9 15-13 17-11 7 7-7 26-19 26-6 0-6-6 2-15z"/><path d="m2220 5795 174-175 27 26c57 54 119 207 119 291v33h-247-248z"/><path d="m2553 5903c-15-95-47-174-98-241-46-60-43-83 5-37 38 37 52 13 14-26-27-28-27-29-9-49 24-26 37-25 65 5 16 17 27 22 34 15s0-20-19-40l-29-31 47-47 47-47 283 283 282 282h-306-305z"/><path d="m5105 5690 280-280 45 45 44 44-29 31c-22 23-26 33-17 42s19 5 42-17l30-29 22 22 22 22-29 30c-19 20-26 33-19 40s18 2 34-15c21-22 50-34 50-20 0 3-16 26-36 51-64 85-104 191-104 276v38h-307-308z"/><path d="m5454 5938c3-18 8-51 11-73 8-50 65-170 102-213l28-33 175 176 175 175h-248-248z"/><path d="m2030 5707v-247h28c86 1 217 52 285 112l38 33-176 175-175 175z"/><path d="m4760 5941c0-5 5-13 10-16 6-3 10-2 10 4 0 5-4 13-10 16-5 3-10 2-10-4z"/><path d="m5786 5781c-109-109-167-174-163-183 8-22 112-88 172-109 29-10 79-22 109-25l56-7v247c0 135-1 246-3 246-1 0-78-76-171-169z"/><path d="m3220 5929c0-5 5-7 10-4 6 3 10 8 10 11 0 2-4 4-10 4-5 0-10-5-10-11z"/><path d="m3175 5890c-3-5-2-10 4-10 5 0 13 5 16 10 3 6 2 10-4 10-5 0-13-4-16-10z"/><path d="m4805 5890c3-5 8-10 11-10 2 0 4 5 4 10 0 6-5 10-11 10-5 0-7-4-4-10z"/><path d="m3137 5853c-4-3-7-11-7-17s5-5 12 2c6 6 9 14 7 17-3 3-9 2-12-2z"/><path d="m4845 5850c3-5 11-10 16-10 6 0 7 5 4 10-3 6-11 10-16 10-6 0-7-4-4-10z"/><path d="m3097 5813c-4-3-7-11-7-17s5-5 12 2c6 6 9 14 7 17-3 3-9 2-12-2z"/><path d="m4890 5811c0-5 5-13 10-16 6-3 10-2 10 4 0 5-4 13-10 16-5 3-10 2-10-4z"/><path d="m3045 5760c-3-5-2-10 4-10 5 0 13 5 16 10 3 6 2 10-4 10-5 0-13-4-16-10z"/><path d="m4930 5760c0-5 5-10 10-10 6 0 10 5 10 10 0 6-4 10-10 10-5 0-10-4-10-10z"/><path d="m3005 5720c-3-5-1-10 4-10 6 0 11 5 11 10 0 6-2 10-4 10-3 0-8-4-11-10z"/><path d="m4970 5720c0-5 5-10 10-10 6 0 10 5 10 10 0 6-4 10-10 10-5 0-10-4-10-10z"/><path d="m2967 5683c-4-3-7-11-7-17s5-5 12 2c6 6 9 14 7 17-3 3-9 2-12-2z"/><path d="m5012 5679c2-7 10-15 17-17 8-3 12 1 9 9-2 7-10 15-17 17-8 3-12-1-9-9z"/><path d="m2915 5630c-3-5-2-10 4-10 5 0 13 5 16 10 3 6 2 10-4 10-5 0-13-4-16-10z"/><path d="m5060 5630c0-5 5-10 10-10 6 0 10 5 10 10 0 6-4 10-10 10-5 0-10-4-10-10z"/><path d="m2875 5590c-3-5-2-10 4-10 5 0 13 5 16 10 3 6 2 10-4 10-5 0-13-4-16-10z"/><path d="m5100 5590c0-5 5-10 10-10 6 0 10 5 10 10 0 6-4 10-10 10-5 0-10-4-10-10z"/><path d="m2351 5554c-66-51-141-84-236-102l-85-16v-306-305l282 282 283 283-47 47-47 47-30-28c-42-40-62-23-22 18l31 32-25 24-25 24-29-28c-42-41-62-23-21 19 44 45 24 51-29 9z"/><path d="m5590 5578c0-7 12-24 26-39 40-42 19-58-22-18-33 32-34 32-54 14-26-24-25-33 6-66 40-42 19-58-22-18l-34 33-46-45-45-46 280-284 280-284 1 306v306l-74 12c-83 14-194 63-248 110-39 34-48 37-48 19z"/><path d="m2837 5553c-4-3-7-11-7-17s5-5 12 2c6 6 9 14 7 17-3 3-9 2-12-2z"/><path d="m5142 5551c2-7 7-12 11-12 12 1 9 15-3 20-7 2-11-2-8-8z"/><path d="m2797 5513c-4-3-7-11-7-17s5-5 12 2c6 6 9 14 7 17-3 3-9 2-12-2z"/><path d="m5186 5512c-3-6-1-14 5-17 15-10 25 3 12 16-7 7-13 7-17 1z"/><path d="m2745 5460c-3-5-2-10 4-10 5 0 13 5 16 10 3 6 2 10-4 10-5 0-13-4-16-10z"/><path d="m5230 5460c0-5 5-10 10-10 6 0 10 5 10 10 0 6-4 10-10 10-5 0-10-4-10-10z"/><path d="m2705 5420c-3-5-1-10 4-10 6 0 11 5 11 10 0 6-2 10-4 10-3 0-8-4-11-10z"/><path d="m5270 5420c0-5 5-10 10-10 6 0 10 5 10 10 0 6-4 10-10 10-5 0-10-4-10-10z"/><path d="m2667 5383c-4-3-7-11-7-17s5-5 12 2c6 6 9 14 7 17-3 3-9 2-12-2z"/><path d="m5312 5379c2-7 10-15 17-17 8-3 12 1 9 9-2 7-10 15-17 17-8 3-12-1-9-9z"/><path d="m2615 5330c-3-5-2-10 4-10 5 0 13 5 16 10 3 6 2 10-4 10-5 0-13-4-16-10z"/><path d="m5360 5330c0-5 5-10 11-10 5 0 7 5 4 10-3 6-8 10-11 10-2 0-4-4-4-10z"/><path d="m2575 5290c-3-5-2-10 4-10 5 0 13 5 16 10 3 6 2 10-4 10-5 0-13-4-16-10z"/><path d="m5400 5290c0-5 5-10 10-10 6 0 10 5 10 10 0 6-4 10-10 10-5 0-10-4-10-10z"/><path d="m2537 5253c-4-3-7-11-7-17s5-5 12 2c6 6 9 14 7 17-3 3-9 2-12-2z"/><path d="m5442 5249c2-7 10-15 17-17 8-3 12 1 9 9-2 7-10 15-17 17-8 3-12-1-9-9z"/><path d="m2497 5213c-4-3-7-11-7-17s5-5 12 2c6 6 9 14 7 17-3 3-9 2-12-2z"/><path d="m5490 5200c0-5 5-10 10-10 6 0 10 5 10 10 0 6-4 10-10 10-5 0-10-4-10-10z"/><path d="m2445 5160c-3-5-2-10 4-10 5 0 13 5 16 10 3 6 2 10-4 10-5 0-13-4-16-10z"/><path d="m5530 5160c0-5 5-10 10-10 6 0 10 5 10 10 0 6-4 10-10 10-5 0-10-4-10-10z"/><path d="m2405 5120c-3-5-1-10 4-10 6 0 11 5 11 10 0 6-2 10-4 10-3 0-8-4-11-10z"/><path d="m5570 5120c0-5 5-10 10-10 6 0 10 5 10 10 0 6-4 10-10 10-5 0-10-4-10-10z"/><path d="m2367 5083c-4-3-7-11-7-17s5-5 12 2c6 6 9 14 7 17-3 3-9 2-12-2z"/><path d="m5612 5079c2-7 10-15 17-17 8-3 12 1 9 9-2 7-10 15-17 17-8 3-12-1-9-9z"/><path d="m2315 5030c-3-5-2-10 4-10 5 0 13 5 16 10 3 6 2 10-4 10-5 0-13-4-16-10z"/><path d="m5660 5030c0-5 5-10 10-10 6 0 10 5 10 10 0 6-4 10-10 10-5 0-10-4-10-10z"/><path d="m2275 4990c-3-5-2-10 4-10 5 0 13 5 16 10 3 6 2 10-4 10-5 0-13-4-16-10z"/><path d="m5700 4990c0-5 5-10 10-10 6 0 10 5 10 10 0 6-4 10-10 10-5 0-10-4-10-10z"/><path d="m2237 4953c-4-3-7-11-7-17s5-5 12 2c6 6 9 14 7 17-3 3-9 2-12-2z"/><path d="m5740 4951c0-5 5-13 10-16 6-3 10-2 10 4 0 5-4 13-10 16-5 3-10 2-10-4z"/><path d="m2197 4913c-4-3-7-11-7-17s5-5 12 2c6 6 9 14 7 17-3 3-9 2-12-2z"/><path d="m5790 4900c0-5 5-10 11-10 5 0 7 5 4 10-3 6-8 10-11 10-2 0-4-4-4-10z"/><path d="m2145 4860c-3-5-2-10 4-10 5 0 13 5 16 10 3 6 2 10-4 10-5 0-13-4-16-10z"/><path d="m5830 4860c0-5 5-10 11-10 5 0 7 5 4 10-3 6-8 10-11 10-2 0-4-4-4-10z"/><path d="m2107 4823c-4-3-7-11-7-17s5-5 12 2c6 6 9 14 7 17-3 3-9 2-12-2z"/><path d="m5870 4820c0-5 5-10 11-10 5 0 7 5 4 10-3 6-8 10-11 10-2 0-4-4-4-10z"/><path d="m2067 4783c-4-3-7-11-7-17s5-5 12 2c6 6 9 14 7 17-3 3-9 2-12-2z"/><path d="m5915 4770c3-5 11-10 16-10 6 0 7 5 4 10-3 6-11 10-16 10-6 0-7-4-4-10z"/><path d="m2015 4730c-3-5-2-10 4-10 5 0 13 5 16 10 3 6 2 10-4 10-5 0-13-4-16-10z"/><path d="m5960 4730c0-5 5-10 11-10 5 0 7 5 4 10-3 6-8 10-11 10-2 0-4-4-4-10z"/><path d="m1975 4690c-3-5-2-10 4-10 5 0 13 5 16 10 3 6 2 10-4 10-5 0-13-4-16-10z"/><path d="m6000 4690c0-5 5-10 11-10 5 0 7 5 4 10-3 6-8 10-11 10-2 0-4-4-4-10z"/><path d="m1937 4653c-4-3-7-11-7-17s5-5 12 2c6 6 9 14 7 17-3 3-9 2-12-2z"/><path d="m6040 4652c0-12 19-26 26-19 2 2-2 10-11 17-9 8-15 8-15 2z"/><path d="m1890 4599c0-5 5-7 10-4 6 3 10 8 10 11 0 2-4 4-10 4-5 0-10-5-10-11z"/><path d="m6090 4600c0-5 5-10 11-10 5 0 7 5 4 10-3 6-8 10-11 10-2 0-4-4-4-10z"/><path d="m1845 4560c-3-5-2-10 4-10 5 0 13 5 16 10 3 6 2 10-4 10-5 0-13-4-16-10z"/><path d="m6130 4560c0-5 5-10 11-10 5 0 7 5 4 10-3 6-8 10-11 10-2 0-4-4-4-10z"/><path d="m1805 4519c-11-17 1-21 15-4 8 9 8 15 2 15s-14-5-17-11z"/><path d="m6170 4521c0-5 5-13 10-16 6-3 10-2 10 4 0 5-4 13-10 16-5 3-10 2-10-4z"/><path d="m1767 4483c-4-3-7-11-7-17s5-5 12 2c6 6 9 14 7 17-3 3-9 2-12-2z"/><path d="m6215 4470c3-5 11-10 16-10 6 0 7 5 4 10-3 6-11 10-16 10-6 0-7-4-4-10z"/><path d="m1715 4430c-3-5-2-10 4-10 5 0 13 5 16 10 3 6 2 10-4 10-5 0-13-4-16-10z"/><path d="m6255 4430c3-5 11-10 16-10 6 0 7 5 4 10-3 6-11 10-16 10-6 0-7-4-4-10z"/><path d="m1675 4389c-11-17 1-21 15-4 8 9 8 15 2 15s-14-5-17-11z"/><path d="m6300 4390c0-5 5-10 11-10 5 0 7 5 4 10-3 6-8 10-11 10-2 0-4-4-4-10z"/><path d="m1637 4353c-4-3-7-11-7-17s5-5 12 2c6 6 9 14 7 17-3 3-9 2-12-2z"/><path d="m6340 4352c0-12 19-26 26-19 2 2-2 10-11 17-9 8-15 8-15 2z"/><path d="m1720 4285-44-45 119-120 120-120-120-120-120-120 48-47 47-48 167 168 168 167-165 165c-91 91-167 165-170 165s-26-20-50-45z"/><path d="m6060 4165-165-165 168-167 167-168 47 48 48 47-120 120-120 120 120 120 119 120-44 45c-24 25-47 45-50 45s-79-74-170-165z"/><path d="m1590 4299c0-5 5-7 10-4 6 3 10 8 10 11 0 2-4 4-10 4-5 0-10-5-10-11z"/><path d="m6385 4300c3-5 11-10 16-10 6 0 7 5 4 10-3 6-11 10-16 10-6 0-7-4-4-10z"/><path d="m1545 4260c-3-5-2-10 4-10 5 0 13 5 16 10 3 6 2 10-4 10-5 0-13-4-16-10z"/><path d="m6430 4260c0-5 5-10 11-10 5 0 7 5 4 10-3 6-8 10-11 10-2 0-4-4-4-10z"/><path d="m1507 4223c-4-3-7-11-7-17s5-5 12 2c6 6 9 14 7 17-3 3-9 2-12-2z"/><path d="m1550 4115-115-115 110-110c60-60 114-110 120-110s60 50 120 110l110 110-115 115-115 115zm131-75c22-12 26-59 7-78-7-7-21-12-33-12-29 0-45 19-45 52 0 39 34 57 71 38z"/><path d="m6220 4115-115-115 110-110c60-60 114-110 120-110s60 50 120 110l110 110-115 115-115 115zm154-81c49-48-15-113-66-67-22 20-23 41-1 65 20 22 46 23 67 2z"/><path d="m6470 4221c0-5 5-13 10-16 6-3 10-2 10 4 0 5-4 13-10 16-5 3-10 2-10-4z"/><path d="m1467 4183c-4-3-7-11-7-17s5-5 12 2c6 6 9 14 7 17-3 3-9 2-12-2z"/><path d="m6515 4170c3-5 11-10 16-10 6 0 7 5 4 10-3 6-11 10-16 10-6 0-7-4-4-10z"/><path d="m1420 4129c0-5 5-7 10-4 6 3 10 8 10 11 0 2-4 4-10 4-5 0-10-5-10-11z"/><path d="m6555 4130c3-5 11-10 16-10 6 0 7 5 4 10-3 6-11 10-16 10-6 0-7-4-4-10z"/><path d="m1375 4090c-3-5-2-10 4-10 5 0 13 5 16 10 3 6 2 10-4 10-5 0-13-4-16-10z"/><path d="m6600 4091c0-5 5-13 10-16 6-3 10-2 10 4 0 5-4 13-10 16-5 3-10 2-10-4z"/><path d="m1337 4053c-4-3-7-11-7-17s5-5 12 2c6 6 9 14 7 17-3 3-9 2-12-2z"/><path d="m6640 4052c0-12 19-26 26-19 2 2-2 10-11 17-9 8-15 8-15 2z"/><path d="m1290 4000c0-5 5-10 10-10 6 0 10 5 10 10 0 6-4 10-10 10-5 0-10-4-10-10z"/><path d="m6680 4000c0-5 5-10 10-10 6 0 10 5 10 10 0 6-4 10-10 10-5 0-10-4-10-10z"/><path d="m1330 3960c0-5 5-10 10-10 6 0 10 5 10 10 0 6-4 10-10 10-5 0-10-4-10-10z"/><path d="m6645 3960c-3-5-2-10 4-10 5 0 13 5 16 10 3 6 2 10-4 10-5 0-13-4-16-10z"/><path d="m1372 3919c2-7 10-15 17-17 8-3 12 1 9 9-2 7-10 15-17 17-8 3-12-1-9-9z"/><path d="m6607 3923c-4-3-7-11-7-17s5-5 12 2c6 6 9 14 7 17-3 3-9 2-12-2z"/><path d="m1420 3870c0-5 5-10 10-10 6 0 10 5 10 10 0 6-4 10-10 10-5 0-10-4-10-10z"/><path d="m6560 3869c0-5 5-7 10-4 6 3 10 8 10 11 0 2-4 4-10 4-5 0-10-5-10-11z"/><path d="m1460 3830c0-5 5-10 10-10 6 0 10 5 10 10 0 6-4 10-10 10-5 0-10-4-10-10z"/><path d="m6515 3830c-3-5-2-10 4-10 5 0 13 5 16 10 3 6 2 10-4 10-5 0-13-4-16-10z"/><path d="m1502 3791c4-13 18-16 19-4 0 4-5 9-11 12-7 2-11-2-8-8z"/><path d="m6477 3793c-4-3-7-11-7-17s5-5 12 2c6 6 9 14 7 17-3 3-9 2-12-2z"/><path d="m6437 3753c-4-3-7-11-7-17s5-5 12 2c6 6 9 14 7 17-3 3-9 2-12-2z"/><path d="m1545 3740c3-5 11-10 16-10 6 0 7 5 4 10-3 6-11 10-16 10-6 0-7-4-4-10z"/><path d="m1590 3700c0-5 5-10 11-10 5 0 7 5 4 10-3 6-8 10-11 10-2 0-4-4-4-10z"/><path d="m6385 3700c-3-5-2-10 4-10 5 0 13 5 16 10 3 6 2 10-4 10-5 0-13-4-16-10z"/><path d="m1630 3660c0-5 5-10 11-10 5 0 7 5 4 10-3 6-8 10-11 10-2 0-4-4-4-10z"/><path d="m6345 3660c-3-5-2-10 4-10 5 0 13 5 16 10 3 6 2 10-4 10-5 0-13-4-16-10z"/><path d="m1670 3622c0-12 19-26 26-19 2 2-2 10-11 17-9 8-15 8-15 2z"/><path d="m6307 3623c-4-3-7-11-7-17s5-5 12 2c6 6 9 14 7 17-3 3-9 2-12-2z"/><path d="m1720 3570c0-5 5-10 11-10 5 0 7 5 4 10-3 6-8 10-11 10-2 0-4-4-4-10z"/><path d="m6255 3570c-3-5-2-10 4-10 5 0 13 5 16 10 3 6 2 10-4 10-5 0-13-4-16-10z"/><path d="m1760 3530c0-5 5-10 11-10 5 0 7 5 4 10-3 6-8 10-11 10-2 0-4-4-4-10z"/><path d="m6215 3530c-3-5-2-10 4-10 5 0 13 5 16 10 3 6 2 10-4 10-5 0-13-4-16-10z"/><path d="m1800 3491c0-5 5-13 10-16 6-3 10-2 10 4 0 5-4 13-10 16-5 3-10 2-10-4z"/><path d="m6177 3493c-4-3-7-11-7-17s5-5 12 2c6 6 9 14 7 17-3 3-9 2-12-2z"/><path d="m6137 3453c-4-3-7-11-7-17s5-5 12 2c6 6 9 14 7 17-3 3-9 2-12-2z"/><path d="m1845 3440c3-5 11-10 16-10 6 0 7 5 4 10-3 6-11 10-16 10-6 0-7-4-4-10z"/><path d="m1890 3400c0-5 5-10 11-10 5 0 7 5 4 10-3 6-8 10-11 10-2 0-4-4-4-10z"/><path d="m6085 3400c-3-5-2-10 4-10 5 0 13 5 16 10 3 6 2 10-4 10-5 0-13-4-16-10z"/><path d="m1930 3360c0-5 5-10 11-10 5 0 7 5 4 10-3 6-8 10-11 10-2 0-4-4-4-10z"/><path d="m6045 3360c-3-5-1-10 4-10 6 0 11 5 11 10 0 6-2 10-4 10-3 0-8-4-11-10z"/><path d="m1970 3322c0-12 19-26 26-19 2 2-2 10-11 17-9 8-15 8-15 2z"/><path d="m6007 3323c-4-3-7-11-7-17s5-5 12 2c6 6 9 14 7 17-3 3-9 2-12-2z"/><path d="m2015 3270c3-5 11-10 16-10 6 0 7 5 4 10-3 6-11 10-16 10-6 0-7-4-4-10z"/><path d="m5960 3269c0-5 5-7 10-4 6 3 10 8 10 11 0 2-4 4-10 4-5 0-10-5-10-11z"/><path d="m2060 3231c0-5 5-13 10-16 6-3 10-2 10 4 0 5-4 13-10 16-5 3-10 2-10-4z"/><path d="m5915 3230c-3-5-2-10 4-10 5 0 13 5 16 10 3 6 2 10-4 10-5 0-13-4-16-10z"/><path d="m2100 3191c0-5 5-13 10-16 6-3 10-2 10 4 0 5-4 13-10 16-5 3-10 2-10-4z"/><path d="m5877 3193c-4-3-7-11-7-17s5-5 12 2c6 6 9 14 7 17-3 3-9 2-12-2z"/><path d="m2030 2870v-305l76-13c90-14 168-47 241-102 57-44 80-40 33 5-23 22-27 31-18 42s17 8 43-17l31-30 22 23 22 23-30 29c-23 22-27 31-18 42s17 8 43-17l31-30 44 45 45 45-283 283-282 282z"/><path d="m5677 2892-277-277 48-48 48-47 29 30c19 20 32 27 39 20s0-20-19-40l-29-30 24-25 24-25 32 31c41 39 58 20 19-21-38-40-22-59 19-22 72 63 167 104 270 117l56 7v304c0 167-1 304-3 304-1 0-127-125-280-278z"/><path d="m5837 3153c-4-3-7-11-7-17s5-5 12 2c6 6 9 14 7 17-3 3-9 2-12-2z"/><path d="m2145 3140c3-5 11-10 16-10 6 0 7 5 4 10-3 6-11 10-16 10-6 0-7-4-4-10z"/><path d="m2190 3100c0-5 5-10 11-10 5 0 7 5 4 10-3 6-8 10-11 10-2 0-4-4-4-10z"/><path d="m5785 3100c-3-5-2-10 4-10 5 0 13 5 16 10 3 6 2 10-4 10-5 0-13-4-16-10z"/><path d="m2230 3060c0-5 5-10 11-10 5 0 7 5 4 10-3 6-8 10-11 10-2 0-4-4-4-10z"/><path d="m5745 3059c-11-17 1-21 15-4 8 9 8 15 2 15s-14-5-17-11z"/><path d="m2270 3022c0-12 19-26 26-19 2 2-2 10-11 17-9 8-15 8-15 2z"/><path d="m5707 3023c-4-3-7-11-7-17s5-5 12 2c6 6 9 14 7 17-3 3-9 2-12-2z"/><path d="m2315 2970c3-5 11-10 16-10 6 0 7 5 4 10-3 6-11 10-16 10-6 0-7-4-4-10z"/><path d="m5655 2970c-3-5-2-10 4-10 5 0 13 5 16 10 3 6 2 10-4 10-5 0-13-4-16-10z"/><path d="m2360 2931c0-5 5-13 10-16 6-3 10-2 10 4 0 5-4 13-10 16-5 3-10 2-10-4z"/><path d="m5615 2930c-3-5-2-10 4-10 5 0 13 5 16 10 3 6 2 10-4 10-5 0-13-4-16-10z"/><path d="m2400 2891c0-5 5-13 10-16 6-3 10-2 10 4 0 5-4 13-10 16-5 3-10 2-10-4z"/><path d="m5577 2893c-4-3-7-11-7-17s5-5 12 2c6 6 9 14 7 17-3 3-9 2-12-2z"/><path d="m5537 2853c-4-3-7-11-7-17s5-5 12 2c6 6 9 14 7 17-3 3-9 2-12-2z"/><path d="m2445 2840c3-5 11-10 16-10 6 0 7 5 4 10-3 6-11 10-16 10-6 0-7-4-4-10z"/><path d="m2490 2800c0-5 5-10 11-10 5 0 7 5 4 10-3 6-8 10-11 10-2 0-4-4-4-10z"/><path d="m5490 2799c0-5 5-7 10-4 6 3 10 8 10 11 0 2-4 4-10 4-5 0-10-5-10-11z"/><path d="m2530 2761c0-5 5-13 10-16 6-3 10-2 10 4 0 5-4 13-10 16-5 3-10 2-10-4z"/><path d="m5445 2759c-11-17 1-21 15-4 8 9 8 15 2 15s-14-5-17-11z"/><path d="m2570 2722c0-12 19-26 26-19 2 2-2 10-11 17-9 8-15 8-15 2z"/><path d="m5400 2709c0-5 5-7 10-4 6 3 10 8 10 11 0 2-4 4-10 4-5 0-10-5-10-11z"/><path d="m2615 2670c3-5 11-10 16-10 6 0 7 5 4 10-3 6-11 10-16 10-6 0-7-4-4-10z"/><path d="m5360 2669c0-5 5-7 10-4 6 3 10 8 10 11 0 2-4 4-10 4-5 0-10-5-10-11z"/><path d="m2660 2631c0-5 5-13 10-16 6-3 10-2 10 4 0 5-4 13-10 16-5 3-10 2-10-4z"/><path d="m5315 2630c-3-5-2-10 4-10 5 0 13 5 16 10 3 6 2 10-4 10-5 0-13-4-16-10z"/><path d="m2700 2591c0-5 5-13 10-16 6-3 10-2 10 4 0 5-4 13-10 16-5 3-10 2-10-4z"/><path d="m5277 2593c-4-3-7-11-7-17s5-5 12 2c6 6 9 14 7 17-3 3-9 2-12-2z"/><path d="m2560 2545-44-45 28-29c40-42 23-62-18-22l-32 31-22-23-22-23 30-29c23-22 27-31 18-42s-17-8-43 17c-47 45-50 25-5-34 55-73 88-150 102-239l12-77h298c164 0 298 3 298 8 0 8-542 552-550 552-3 0-26-20-50-45z"/><path d="m5195 2408c-99-101-223-227-275-280l-95-98h303c234 0 303 3 306 13 2 6 8 42 14 79 12 80 49 166 98 225 44 53 35 78-11 33-42-41-60-21-19 21l28 29-24 25-24 25-32-31c-41-40-58-20-18 22l28 29-44 45c-24 25-47 45-50 45s-86-82-185-182z"/><path d="m2745 2540c3-5 11-10 16-10 6 0 7 5 4 10-3 6-11 10-16 10-6 0-7-4-4-10z"/><path d="m5230 2539c0-5 5-7 10-4 6 3 10 8 10 11 0 2-4 4-10 4-5 0-10-5-10-11z"/><path d="m1935 2533c-11-2-37-9-57-14l-38-10v-339-340h334 334l16 65c9 35 16 78 16 95v30h-260-260v260 260l-32-1c-18-1-42-3-53-6z"/><path d="m2030 2294v-249l175 175c96 96 175 178 175 181s-27 25-60 48c-71 50-147 79-230 88l-60 6z"/><path d="m5831 2524c-63-17-136-55-183-95l-33-28 173-173 172-173v243 242l-37-1c-21 0-62-7-92-15z"/><path d="m5978 2278-3-263-262-3-261-2 5-43c3-23 11-66 19-94l15-53h344 345v339 339l-27 10c-47 18-107 32-140 32h-33z"/><path d="m2790 2500c0-5 5-10 11-10 5 0 7 5 4 10-3 6-8 10-11 10-2 0-4-4-4-10z"/><path d="m5190 2499c0-5 5-7 10-4 6 3 10 8 10 11 0 2-4 4-10 4-5 0-10-5-10-11z"/><path d="m2830 2461c0-5 5-13 10-16 6-3 10-2 10 4 0 5-4 13-10 16-5 3-10 2-10-4z"/><path d="m5145 2459c-11-17 1-21 15-4 8 9 8 15 2 15s-14-5-17-11z"/><path d="m2875 2410c3-5 11-10 16-10 6 0 7 5 4 10-3 6-11 10-16 10-6 0-7-4-4-10z"/><path d="m5100 2409c0-5 5-7 10-4 6 3 10 8 10 11 0 2-4 4-10 4-5 0-10-5-10-11z"/><path d="m2227 2212c-92-92-167-171-167-175s108-7 240-7h240v33c0 45-25 138-51 190-22 43-80 126-89 127-3 0-81-75-173-168z"/><path d="m2915 2370c3-5 11-10 16-10 6 0 7 5 4 10-3 6-11 10-16 10-6 0-7-4-4-10z"/><path d="m5060 2369c0-5 5-7 10-4 6 3 10 8 10 11 0 2-4 4-10 4-5 0-10-5-10-11z"/><path d="m5561 2342c-17-22-45-69-61-104-29-63-54-186-41-201 4-4 114-6 244-5l237 3-173 173-174 174z"/><path d="m2960 2331c0-5 5-13 10-16 6-3 10-2 10 4 0 5-4 13-10 16-5 3-10 2-10-4z"/><path d="m5015 2330c-3-5-2-10 4-10 5 0 13 5 16 10 3 6 2 10-4 10-5 0-13-4-16-10z"/><path d="m3000 2291c0-5 5-13 10-16 6-3 10-2 10 4 0 5-4 13-10 16-5 3-10 2-10-4z"/><path d="m4977 2293c-4-3-7-11-7-17s5-5 12 2c6 6 9 14 7 17-3 3-9 2-12-2z"/><path d="m3045 2240c3-5 11-10 16-10 6 0 7 5 4 10-3 6-11 10-16 10-6 0-7-4-4-10z"/><path d="m4930 2239c0-5 5-7 10-4 6 3 10 8 10 11 0 2-4 4-10 4-5 0-10-5-10-11z"/><path d="m3090 2200c0-5 5-10 11-10 5 0 7 5 4 10-3 6-8 10-11 10-2 0-4-4-4-10z"/><path d="m4890 2200c0-5 5-10 10-10 6 0 10 5 10 10 0 6-4 10-10 10-5 0-10-4-10-10z"/><path d="m3130 2161c0-5 5-13 10-16 6-3 10-2 10 4 0 5-4 13-10 16-5 3-10 2-10-4z"/><path d="m4845 2159c-4-6-5-13-2-16 7-7 27 6 27 18s-17 12-25-2z"/><path d="m3175 2110c3-5 11-10 16-10 6 0 7 5 4 10-3 6-11 10-16 10-6 0-7-4-4-10z"/><path d="m4800 2109c0-5 5-7 10-4 6 3 10 8 10 11 0 2-4 4-10 4-5 0-10-5-10-11z"/><path d="m3215 2070c3-5 11-10 16-10 6 0 7 5 4 10-3 6-11 10-16 10-6 0-7-4-4-10z"/><path d="m4760 2069c0-5 5-7 10-4 6 3 10 8 10 11 0 2-4 4-10 4-5 0-10-5-10-11z"/><path d="m3260 2031c0-5 5-13 10-16 6-3 10-2 10 4 0 5-4 13-10 16-5 3-10 2-10-4z"/><path d="m4715 2029c-4-6-5-13-2-16 7-7 27 6 27 18s-17 12-25-2z"/><path d="m3305 1980c3-5 8-10 11-10 2 0 4 5 4 10 0 6-5 10-11 10-5 0-7-4-4-10z"/><path d="m4670 1980c0-5 4-10 9-10 6 0 13 5 16 10 3 6-1 10-9 10-9 0-16-4-16-10z"/><path d="m3345 1940c3-5 11-10 16-10 6 0 7 5 4 10-3 6-11 10-16 10-6 0-7-4-4-10z"/><path d="m4630 1940c0-5 5-10 10-10 6 0 10 5 10 10 0 6-4 10-10 10-5 0-10-4-10-10z"/><path d="m3390 1900c0-5 5-10 11-10 5 0 7 5 4 10-3 6-8 10-11 10-2 0-4-4-4-10z"/><path d="m4590 1894c0-8 5-12 10-9 6 3 10 10 10 16 0 5-4 9-10 9-5 0-10-7-10-16z"/><path d="m3430 1861c0-5 5-13 10-16 6-3 10-2 10 4 0 5-4 13-10 16-5 3-10 2-10-4z"/><path d="m4545 1859c-10-15 3-25 16-12 7 7 7 13 1 17-6 3-14 1-17-5z"/><path d="m3475 1810c3-5 11-10 16-10 6 0 7 5 4 10-3 6-11 10-16 10-6 0-7-4-4-10z"/><path d="m4500 1810c0-5 5-10 10-10 6 0 10 5 10 10 0 6-4 10-10 10-5 0-10-4-10-10z"/><path d="m3515 1770c3-5 11-10 16-10 6 0 7 5 4 10-3 6-11 10-16 10-6 0-7-4-4-10z"/><path d="m4460 1770c0-5 5-10 10-10 6 0 10 5 10 10 0 6-4 10-10 10-5 0-10-4-10-10z"/><path d="m3560 1731c0-5 5-13 10-16 6-3 10-2 10 4 0 5-4 13-10 16-5 3-10 2-10-4z"/><path d="m4415 1729c-4-6-5-13-2-16 7-7 27 6 27 18s-17 12-25-2z"/><path d="m3605 1680c3-5 8-10 11-10 2 0 4 5 4 10 0 6-5 10-11 10-5 0-7-4-4-10z"/><path d="m4370 1680c0-5 5-10 10-10 6 0 10 5 10 10 0 6-4 10-10 10-5 0-10-4-10-10z"/><path d="m3645 1640c3-5 11-10 16-10 6 0 7 5 4 10-3 6-11 10-16 10-6 0-7-4-4-10z"/><path d="m4330 1640c0-5 5-10 10-10 6 0 10 5 10 10 0 6-4 10-10 10-5 0-10-4-10-10z"/><path d="m3690 1601c0-5 5-13 10-16 6-3 10-2 10 4 0 5-4 13-10 16-5 3-10 2-10-4z"/><path d="m4297 1603c-4-3-7-11-7-17s5-5 12 2c6 6 9 14 7 17-3 3-9 2-12-2z"/><path d="m3730 1561c0-5 5-13 10-16 6-3 10-2 10 4 0 5-4 13-10 16-5 3-10 2-10-4z"/><path d="m4250 1555c-8-9-8-15-2-15 12 0 26 19 19 26-2 2-10-2-17-11z"/><path d="m3775 1510c3-5 11-10 16-10 6 0 7 5 4 10-3 6-11 10-16 10-6 0-7-4-4-10z"/><path d="m4205 1510c-3-5-1-10 4-10 6 0 11 5 11 10 0 6-2 10-4 10-3 0-8-4-11-10z"/><path d="m3815 1470c3-5 11-10 16-10 6 0 7 5 4 10-3 6-11 10-16 10-6 0-7-4-4-10z"/><path d="m4165 1470c-3-5-1-10 4-10 6 0 11 5 11 10 0 6-2 10-4 10-3 0-8-4-11-10z"/><path d="m3860 1431c0-5 5-13 10-16 6-3 10-2 10 4 0 5-4 13-10 16-5 3-10 2-10-4z"/><path d="m4120 1425c-8-9-8-15-2-15 12 0 26 19 19 26-2 2-10-2-17-11z"/><path d="m3905 1380c3-5 8-10 11-10 2 0 4 5 4 10 0 6-5 10-11 10-5 0-7-4-4-10z"/><path d="m4075 1380c-3-5-1-10 4-10 6 0 11 5 11 10 0 6-2 10-4 10-3 0-8-4-11-10z"/><path d="m3945 1340c3-5 11-10 16-10 6 0 7 5 4 10-3 6-11 10-16 10-6 0-7-4-4-10z"/><path d="m4035 1340c-3-5-1-10 4-10 6 0 11 5 11 10 0 6-2 10-4 10-3 0-8-4-11-10z"/><path d="m3990 1300c0-5 5-10 10-10 6 0 10 5 10 10 0 6-4 10-10 10-5 0-10-4-10-10z"/></g></svg>